<svg version="1.1" id="logo-blue" xmlns="http://www.w3.org/2000/svg" xmlns:xlink="http://www.w3.org/1999/xlink" x="0px" y="0px"
	 width="2752px" height="564px" viewBox="0 0 2752 564" enable-background="new 0 0 2752 564" xml:space="preserve">
<path fill="#0082ED" d="M1332.809,411.33c1.626-22.791,8.404-38.218,12.91-55.951c-7.216-0.426-11.95,6.192-15.788,10.768
	c-12.179,14.468-18.209,36.441-20.8,60.971c-2.196,20.736-2.575,42.17-6.553,60.574c12.499,12.368,24.557,22.619,35.405,30.378
	C1343.229,487.721,1330.233,447.147,1332.809,411.33z"/>
<path fill="#0082ED" d="M1398.082,440.039c0-23.099-5.1-45.403-13.631-63.878c-2.045-4.418-8.669-15.712-10.025-15.765
	c-2.108-0.087-7.434,10.52-9.337,14.366c-7.903,15.888-13.032,36.308-14.354,55.928c-2.186,32.657,5.597,70.16-2.62,94.11
	c10.636,6.495,19.607,10,25.946,10c6.391,0,15.462-3.562,26.218-10.163C1392.685,503.018,1398.082,472.105,1398.082,440.039z"/>
<path fill="#0082ED" d="M1308.418,348.916c-0.13-0.619,0.274-0.674,0.713-0.72v-0.705c-22.818,7.888-28.752,36.541-34.439,61.684
	c-2.075,9.209-6.421,21.154-13.135,31.584c8.128,10.675,16.431,20.651,24.694,29.811c1.056-11.188,1.48-22.915,2.076-34.13
	C1290.207,401.041,1293.443,368.088,1308.418,348.916z"/>
<path fill="#0082ED" d="M1403.089,355.379c3.673,18.049,10.676,32.316,12.208,55.245c2.221,33.098-7.758,69.382-5.735,99.705
	c0.167,2.484,0.45,5.022,0.859,7.538c10.717-7.692,22.604-17.812,34.919-29.985c-8.509-34.837-3.928-80.836-18.556-109.557
	C1422.143,369.223,1414.069,357.144,1403.089,355.379z"/>
<path fill="#0082ED" d="M1295.495,322.375c-26.648-31.396-38.892-85.727-22.943-132.001c14.541-42.179,52.143-82.408,111.186-78.177
	c25.429,1.792,48.334,15.405,63.845,31.561c22.554,23.494,37.476,59.077,35.158,101.133c-1.849,33.155-13.741,55.613-30.14,76.762
	c22.856,9.525,35.242,31.565,42.322,57.383c3.354,12.201,4.347,26.123,8.169,38.621c36.524-54.406,65.905-122.592,65.905-193.079
	c0-107.671-87.279-194.943-194.938-194.943c-107.654,0-194.941,87.271-194.941,194.943c0,70.416,29.324,138.532,65.793,192.913
	c1.328-6.154,1.881-12.729,3.25-19.071C1255.078,366.179,1266.636,333.032,1295.495,322.375z"/>
<path fill="#0082ED" d="M1440.415,348.196c15.071,20.718,17.967,58.692,20.079,98.259c0.43,8.048,0.88,16.1,1.607,23.857
	c8.116-9.011,16.268-18.811,24.252-29.285c-3.878-5.812-7.022-12.285-9.365-18.938
	C1467.491,395.051,1468.387,358.736,1440.415,348.196z"/>
<path fill="#FFFFFF" d="M1494.924,379.035c-7.08-25.817-19.466-47.857-42.322-57.383c16.398-21.148,28.291-43.606,30.14-76.762
	c2.317-42.056-12.604-77.639-35.158-101.133c-15.511-16.156-38.416-29.769-63.845-31.561c-59.043-4.23-96.645,35.998-111.186,78.177
	c-15.949,46.274-3.705,100.605,22.943,132.001c-28.859,10.657-40.417,43.804-47.333,76.044c-1.369,6.342-1.922,12.917-3.25,19.071
	c-0.014,0.06-0.021,0.127-0.035,0.188c5.4,8.053,10.957,15.806,16.597,23.221c0.03-0.048,0.054-0.094,0.083-0.14
	c6.714-10.43,11.06-22.375,13.135-31.584c5.688-25.143,11.621-53.796,34.439-61.684v0.705c-0.439,0.046-0.844,0.101-0.713,0.72
	c-14.975,19.172-18.211,52.125-20.091,87.523c-0.596,11.215-1.02,22.941-2.076,34.13c-0.007,0.074-0.011,0.148-0.018,0.223
	c5.473,6.069,10.93,11.782,16.307,17.105c0.014-0.068,0.024-0.139,0.039-0.206c3.978-18.404,4.356-39.838,6.553-60.574
	c2.591-24.529,8.621-46.503,20.8-60.971c3.838-4.575,8.572-11.193,15.788-10.768c-4.506,17.733-11.284,33.16-12.91,55.951
	c-2.576,35.817,10.419,76.391,5.175,106.739c-0.012,0.073-0.017,0.149-0.029,0.225c3.5,2.504,6.876,4.748,10.098,6.718
	c0.022-0.067,0.039-0.143,0.062-0.211c8.216-23.95,0.434-61.453,2.62-94.11c1.323-19.62,6.451-40.04,14.354-55.928
	c1.903-3.847,7.229-14.453,9.337-14.366c1.355,0.053,7.979,11.347,10.025,15.765c8.532,18.475,13.631,40.779,13.631,63.878
	c0,32.066-5.397,62.979,2.196,84.599c0.021,0.07,0.04,0.142,0.063,0.209c3.229-1.983,6.608-4.237,10.111-6.753
	c-0.011-0.075-0.019-0.152-0.032-0.227c-0.409-2.516-0.692-5.054-0.859-7.538c-2.022-30.323,7.956-66.607,5.735-99.705
	c-1.532-22.929-8.535-37.196-12.208-55.245c10.98,1.765,19.054,13.844,23.695,22.946c14.628,28.721,10.047,74.72,18.556,109.557
	c0.019,0.069,0.029,0.141,0.047,0.208c5.519-5.456,11.115-11.315,16.733-17.55c-0.008-0.074-0.011-0.152-0.019-0.228
	c-0.728-7.758-1.178-15.81-1.607-23.857c-2.112-39.566-5.008-77.541-20.079-98.259c27.972,10.54,27.076,46.854,36.573,73.894
	c2.343,6.652,5.487,13.126,9.365,18.938c0.029,0.046,0.054,0.094,0.086,0.141c5.674-7.449,11.27-15.239,16.704-23.333
	c-0.019-0.057-0.032-0.118-0.051-0.179C1499.271,405.158,1498.277,391.236,1494.924,379.035z"/>
<path fill="#0082ED" d="M121.097,381.537c-30.01-15.931-53.579-37.961-70.698-66.109c-17.123-28.141-25.681-59.84-25.681-95.108
	c0-35.26,8.558-66.959,25.681-95.106c17.119-28.139,40.688-50.178,70.698-66.118c30.007-15.934,63.826-23.903,101.46-23.903
	c37.635,0,71.457,7.969,101.466,23.903c30.004,15.94,53.567,37.979,70.691,66.118c17.117,28.146,25.685,59.846,25.685,95.106
	c0,35.268-8.568,66.967-25.685,95.108c-17.125,28.148-40.688,50.179-70.691,66.109c-30.009,15.948-63.831,23.905-101.466,23.905
	C184.923,405.442,151.104,397.485,121.097,381.537 M271.383,309.32c14.576-8.468,26.104-20.42,34.582-35.854
	c8.471-15.423,12.715-33.139,12.715-53.146c0-20.006-4.244-37.716-12.715-53.149c-8.479-15.423-20.006-27.375-34.582-35.851
	c-14.583-8.473-30.857-12.717-48.826-12.717c-17.974,0-34.25,4.245-48.823,12.717c-14.582,8.476-26.114,20.428-34.584,35.851
	c-8.481,15.434-12.715,33.143-12.715,53.149c0,20.008,4.234,37.724,12.715,53.146c8.471,15.434,20.002,27.386,34.584,35.854
	c14.573,8.481,30.849,12.719,48.823,12.719C240.525,322.039,256.8,317.802,271.383,309.32z"/>
<path fill="#0082ED" d="M550.338,381.792c-29.675-15.76-52.978-37.716-69.93-65.857c-16.956-28.139-25.431-60.015-25.431-95.616
	c0-35.598,8.475-67.465,25.431-95.613c16.952-28.142,40.255-50.098,69.93-65.865c29.667-15.763,63.144-23.647,100.449-23.647
	c32.55,0,61.872,5.768,87.985,17.292c26.107,11.53,47.809,28.147,65.099,49.843l-64.08,57.979
	c-23.062-27.799-51.037-41.707-83.92-41.707c-19.326,0-36.538,4.244-51.622,12.715c-15.089,8.479-26.788,20.43-35.09,35.856
	c-8.314,15.432-12.46,33.146-12.46,53.147c0,20.011,4.146,37.723,12.46,53.144c8.302,15.438,20.001,27.39,35.09,35.861
	c15.084,8.48,32.296,12.715,51.622,12.715c32.883,0,60.858-13.904,83.92-41.708l64.08,57.979
	c-17.29,21.703-38.992,38.318-65.099,49.845c-26.114,11.522-55.436,17.29-87.985,17.29
	C613.482,405.445,580.006,397.563,550.338,381.792"/>
<polygon fill="#0082ED" points="939.523,122.162 830.176,122.162 830.176,42.312 1149.062,42.312 1149.062,122.162
	1040.223,122.162 1040.223,398.323 939.523,398.323 "/>
<path fill="#0082ED" d="M1863.771,212.691h89.004v147.49c-20.346,14.749-43.738,25.938-70.185,33.564
	c-26.446,7.63-52.894,11.697-79.339,11.697c-37.127,0-70.691-8.135-100.701-23.902c-30.004-15.766-53.4-37.633-70.183-65.605
	c-16.783-27.973-25.427-60.015-25.427-95.615c0-35.601,8.644-67.643,25.427-95.614c16.782-27.971,40.687-50.35,70.694-66.115
	c30.005-15.768,64.08-23.396,102.223-23.396c33.061,0,63.064,5.595,89.51,16.785c26.449,11.188,48.318,27.461,66.117,48.315
	l-64.08,57.977c-23.904-26.445-52.894-39.669-86.458-39.669c-30.516,0-54.928,9.156-73.747,27.463
	c-18.815,18.818-27.971,43.229-27.971,74.254c0,19.834,4.069,37.125,12.715,52.383c8.645,15.766,20.341,27.464,35.6,36.108
	c15.258,8.646,32.551,13.224,52.385,13.224c19.326,0,37.634-4.067,54.416-11.696V212.691z"/>
<polygon fill="#0082ED" points="2302.177,320.51 2302.177,398.323 2016.355,398.323 2016.355,42.315 2295.564,42.315
	2295.564,120.127 2116.036,120.127 2116.036,180.141 2274.205,180.141 2274.205,255.412 2116.036,255.412 2116.036,320.51 "/>
<path fill="#0082ED" d="M2537.147,405.442c-37.636,0-71.204-8.135-101.208-23.902c-30.008-15.766-53.909-38.146-70.694-66.116
	c-17.289-27.973-25.938-60.012-25.938-95.104c0-35.093,8.649-67.133,25.938-95.104c16.785-27.974,40.687-50.351,70.694-66.118
	c30.004-15.765,63.572-23.903,101.208-23.903c37.634,0,71.708,8.138,101.713,23.903c30.011,15.768,53.403,38.144,70.696,66.118
	c16.782,27.971,25.427,60.011,25.427,95.104c0,35.092-8.645,67.131-25.427,95.104c-17.293,27.971-40.686,50.351-70.696,66.116
	C2608.855,397.308,2574.781,405.442,2537.147,405.442z M2537.147,322.035c17.8,0,34.075-4.067,48.822-12.715
	c14.75-8.646,25.94-20.342,34.585-36.11c8.645-15.255,12.714-33.056,12.714-52.891c0-19.835-4.069-37.635-12.714-53.401
	c-8.645-15.258-19.835-26.955-34.585-35.602c-14.747-8.645-31.022-12.715-48.822-12.715c-17.801,0-34.076,4.07-48.824,12.715
	c-14.749,8.646-25.938,20.344-34.583,35.602c-8.647,15.766-12.715,33.565-12.715,53.401c0,19.834,4.067,37.635,12.715,52.891
	c8.645,15.768,19.834,27.464,34.583,36.11C2503.071,317.968,2519.347,322.035,2537.147,322.035z"/>
<path fill="#0082ED" d="M1353.218,243.121c0,10.338-7.523,18.709-16.798,18.709c-9.274,0-16.794-8.372-16.794-18.709
	c0-10.325,7.52-18.7,16.794-18.7C1345.695,224.421,1353.218,232.796,1353.218,243.121"/>
<path fill="#FFFFFF" d="M1340.237,229.193c0,4.744-2.816,8.589-6.298,8.589c-3.48,0-6.301-3.845-6.301-8.589
	c0-4.747,2.821-8.593,6.301-8.593C1337.421,220.6,1340.237,224.446,1340.237,229.193"/>
<path fill="#0082ED" d="M1392.109,243.121c0,10.338,7.512,18.709,16.793,18.709c9.263,0,16.792-8.372,16.792-18.709
	c0-10.325-7.529-18.7-16.792-18.7C1399.621,224.421,1392.109,232.796,1392.109,243.121"/>
<path fill="#FFFFFF" d="M1405.083,229.193c0,4.744,2.811,8.589,6.297,8.589c3.477,0,6.298-3.845,6.298-8.589
	c0-4.747-2.821-8.593-6.298-8.593C1407.894,220.6,1405.083,224.446,1405.083,229.193"/>
</svg>
